<svg width="22" height="21" viewBox="0 0 22 21" fill="none" xmlns="http://www.w3.org/2000/svg">
<path d="M11 0V16.6407C10.8898 16.6407 10.7796 16.6407 10.6694 16.7516L4.16779 20.8563C3.61681 21.3001 2.84543 20.6344 3.06582 19.9688L5.37996 13.7563C5.49016 13.5344 5.37996 13.2016 5.15956 12.9797L0.200704 7.98753C-0.240084 7.54377 0.090507 6.65627 0.751688 6.65627H7.14311C7.4737 6.65627 7.80429 6.4344 7.91449 6.21252L10.3388 0.554689C10.449 0.221876 10.6694 0 11 0ZM11 0V16.6407C11.1102 16.6407 11.2204 16.6407 11.3306 16.7516L17.8322 20.8563C18.3832 21.3001 19.1546 20.6344 18.9342 19.9688L16.62 13.7563C16.5098 13.5344 16.62 13.2016 16.8404 12.9797L21.7993 7.98753C22.2401 7.54377 21.9095 6.65627 21.2483 6.65627H14.8569C14.5263 6.65627 14.1957 6.4344 14.0855 6.21252L11.6612 0.554689C11.551 0.221876 11.3306 0 11 0Z" fill="#cdb547"/>
</svg>
