<svg width="12" height="16" viewBox="0 0 12 16" fill="none" xmlns="http://www.w3.org/2000/svg">
<path d="M1.09135 15.4284C0.982262 15.4284 0.873171 15.4284 0.873171 15.3141C0.654989 15.3141 0.545898 15.0856 0.545898 14.857V1.14272C0.545898 0.914146 0.654989 0.685575 0.873171 0.685575C0.982262 0.685575 1.09135 0.571289 1.09135 0.571289C1.20044 0.571289 1.30953 0.571289 1.41863 0.685575L11.2368 7.54272C11.3459 7.657 11.455 7.77129 11.455 7.99986C11.455 8.22843 11.3459 8.34272 11.2368 8.457L1.41863 15.3141C1.30953 15.4284 1.20044 15.4284 1.09135 15.4284Z" fill="#43649C"/>
<path d="M1.09091 1.14286L10.9091 8L1.09091 14.8571V1.14286ZM1.09091 0C0.872727 0 0.763636 2.55448e-08 0.545455 0.114286C0.218182 0.342857 0 0.685714 0 1.14286V14.8571C0 15.3143 0.218182 15.6571 0.545455 15.8857C0.763636 16 0.872727 16 1.09091 16C1.30909 16 1.52727 15.8857 1.74545 15.7714L11.5636 8.91429C11.8909 8.68571 12 8.34286 12 8C12 7.65714 11.7818 7.31429 11.5636 7.08571L1.74545 0.228571C1.52727 0.114286 1.30909 0 1.09091 0Z" fill="#43649C"/>
</svg>
